<svg xmlns="http://www.w3.org/2000/svg" width="64" height="64" viewBox="0 0 64 64">
<defs><radialGradient id="g" cx="40%" cy="35%" r="75%"><stop offset="0%" stop-color="#ffe8b8"/><stop offset="100%" stop-color="#72613e"/></radialGradient></defs>
<circle cx="32" cy="32" r="30" fill="url(#g)" stroke="#ffd98a" stroke-width="2.5"/>
<circle cx="32" cy="32" r="30" fill="none" stroke="#000" stroke-opacity="0.35" stroke-width="1"/>
<rect x="31" y="9" width="2" height="8" transform="rotate(0 32 32)" fill="#f6f1df"/><rect x="31" y="9" width="2" height="8" transform="rotate(45 32 32)" fill="#f6f1df"/><rect x="31" y="9" width="2" height="8" transform="rotate(90 32 32)" fill="#f6f1df"/><rect x="31" y="9" width="2" height="8" transform="rotate(135 32 32)" fill="#f6f1df"/><rect x="31" y="9" width="2" height="8" transform="rotate(180 32 32)" fill="#f6f1df"/><rect x="31" y="9" width="2" height="8" transform="rotate(225 32 32)" fill="#f6f1df"/><rect x="31" y="9" width="2" height="8" transform="rotate(270 32 32)" fill="#f6f1df"/><rect x="31" y="9" width="2" height="8" transform="rotate(315 32 32)" fill="#f6f1df"/><circle cx="32" cy="32" r="9" fill="#f6f1df" stroke="#1a1411" stroke-width="1.2"/>
</svg>